<?xml version="1.0" encoding="UTF-8" standalone="no"?>
<svg viewBox="0 0 694 40" xmlns:xlink="http://www.w3.org/1999/xlink" xmlns="http://www.w3.org/2000/svg" xmlns:svg="http://www.w3.org/2000/svg">
  <style id="style1">
    .info {
      font-style: normal;
      font-variant: normal;
      font-weight: 500;
      font-stretch: normal;
      font-size: 18px;
      line-heigth: 18px;
      font-family: 'IntelOne Mono';
      fill: #375978;
    }
    svg {
      fill: #375978;
    }
  </style>
  <rect width="694" height="40" fill="#ffffff"></rect> 
  <g>
    <svg height="30" viewBox="0 0 48 48" width="30" x="10" y="6" xmlns="http://www.w3.org/2000/svg">
      <circle cx="24" cy="24" r="6.4"/><path d="M18 4l-3.66 4h-6.34c-2.21 0-4 1.79-4 4v24c0 2.21 1.79 4 4 4h32c2.21 0 4-1.79 4-4v-24c0-2.21-1.79-4-4-4h-6.34l-3.66-4h-12zm6 30c-5.52 0-10-4.48-10-10s4.48-10 10-10 10 4.48 10 10-4.48 10-10 10z"/><path d="M0 0h48v48h-48z" fill="none"/>
    </svg>
    <text x="45" y="27" class="info">
      SONY ILCE-6400
    </text>
  </g>
  <g>
    <svg height="30" width="30" x="298" y="6" viewBox="0 0 48 48" xmlns="http://www.w3.org/2000/svg">
      <path d="M0 0h48v48h-48z" fill="none"/><path d="M18.8 21l9.53-16.51c-1.39-.31-2.84-.49-4.33-.49-4.8 0-9.19 1.69-12.64 4.51l7.33 12.69.11-.2zm24.28-3c-1.84-5.85-6.3-10.52-11.99-12.68l-7.32 12.68h19.31zm.52 2h-14.98l.58 1 9.53 16.5c3.26-3.56 5.27-8.29 5.27-13.5 0-1.37-.14-2.71-.4-4zm-26.53 4l-7.8-13.5c-3.26 3.56-5.27 8.29-5.27 13.5 0 1.37.14 2.71.4 4h14.98l-2.31-4zm-12.15 6c1.84 5.85 6.3 10.52 11.99 12.68l7.32-12.68h-19.31zm22.54 0l-7.8 13.51c1.4.31 2.85.49 4.34.49 4.8 0 9.19-1.69 12.64-4.51l-7.33-12.69-1.85 3.2z"/>
      </svg>
    <text x="333" y="27" class="info">
      f/8
    </text>
  </g>
  <g>
    <svg xmlns="http://www.w3.org/2000/svg" height="30" x="379" y="6" viewBox="0 -960 960 960" width="30"><path d="M360-840v-80h240v80H360ZM480-80q-75 0-140.5-28.5T225-186q-49-49-77-114.5T120-440q0-74 28.5-139.5T226-694q49-49 114.5-77.5T480-800q63 0 120 21t104 59l58-58 56 56-56 58q36 47 57 104t21 120q0 74-28 139.5T735-186q-49 49-114.5 77.5T480-80Zm0-360Zm0-80h268q-18-62-61.5-109T584-700L480-520Zm-70 40 134-232q-59-15-121.5-2.5T306-660l104 180Zm-206 80h206L276-632q-42 47-62.5 106.5T204-400Zm172 220 104-180H212q18 62 61.5 109T376-180Zm40 12q66 17 128 1.5T654-220L550-400 416-168Zm268-80q44-48 63.5-107.5T756-480H550l134 232Z"/></svg>
    <text x="414" y="27" class="info">
      1/250s
    </text>
  </g>
  <g>
    <svg height="30" width="30" x="496" y="6" viewBox="0 0 256 256" xmlns="http://www.w3.org/2000/svg">
    <g><g><g><path d="M216.9,4.8c-1.8,1-25.4,13.8-52.4,28.6s-49.9,27.1-51,27.6c-1,0.4-2.9,1.5-4.2,2.3C108.1,64,86.8,75.7,62,89.3c-30.2,16.5-45.8,25.3-47.3,26.7c-3.5,3.4-4.7,6.5-4.7,12.1c0,5.5,1.2,8.6,4.7,12c1.4,1.3,17.9,10.7,47.9,27.1c25.2,13.7,46.5,25.5,47.4,26.1c0.8,0.6,3,1.7,4.6,2.5c1.7,0.8,25.9,13.9,53.8,29.2c46.4,25.3,51,27.8,53.8,28c2.6,0.2,3.4,0.1,5-1.1c2.9-2,4.5-4.6,4.5-7.6c0-5.8-2.8-10.9-7.3-13.2c-1.5-0.8-2.8-1.7-2.8-2c0-0.3,1-3,2.3-6c13.2-31.5,19.9-57.9,21.7-85.2c1.9-28.6-4.9-63-19.6-100.1c-2.3-5.7-4.2-10.5-4.3-10.7c-0.1-0.2,1.1-1.1,2.6-1.8c6-3,9.3-12.7,6-17.6C227.3,2.7,222.6,1.8,216.9,4.8z M206.8,43.1c22.5,47.8,25.3,100.7,7.9,150.7c-2.5,7.3-9.9,24.3-11.2,25.6c-0.1,0.1-14.6-7.5-32.2-16.9l-32.1-17.2l1.6-2.3c6-8.8,10.8-23.2,12.9-38.8c0.9-6.8,0.9-25.4,0-32.4c-2.1-15.5-6.9-30.1-12.9-38.8l-1.6-2.3l31.9-17.1c17.6-9.4,32.1-17.1,32.2-17.1C203.5,36.6,205.1,39.5,206.8,43.1z M124.3,90.4c3.8,7.9,6.1,17.4,7.1,29.5c1.5,18.1-2.3,39.1-9.1,49.6l-1.8,2.8l-1.1-1.3c-1.8-2.2-5.3-10-6.8-15.1c-4.2-14.6-4.8-33.1-1.7-49c1.6-7.9,5-16.9,8.2-21.4l1.1-1.6l1.1,1.3C122,85.9,123.3,88.2,124.3,90.4z M88.4,103.6c-3.1,16-3.1,33,0,49c0.6,3.2,1.1,5.8,0.9,5.9c-0.1,0.1-11.9-6.1-26.4-13.9l-26.2-14V128v-2.5L63,111.5c14.4-7.7,26.3-13.9,26.4-13.8C89.5,97.7,89,100.4,88.4,103.6z"/></g></g></g>
    </svg>
    <text x="531" y="27" class="info">
      19.1mm
    </text>
  </g>
  <g>
    <svg xmlns="http://www.w3.org/2000/svg" height="30" width="30" x="613" y="6" viewBox="0 -960 960 960">
      <path d="M480-80q-83 0-156-31.5T197-197q-54-54-85.5-127T80-480q0-83 31.5-156T197-763q54-54 127-85.5T480-880q83 0 156 31.5T763-763q54 54 85.5 127T880-480q0 83-31.5 156T763-197q-54 54-127 85.5T480-80Zm0-80q134 0 227-93t93-227q0-134-93-227t-227-93q-134 0-227 93t-93 227q0 134 93 227t227 93Zm0-320Z"/></svg>
    <text x="648" y="27" class="info">
      100
    </text>
  </g>
</svg>
