<svg height="{{height}}" width="{{width}}" x="{{x}}" y="{{y}}" viewBox="0 0 256 256" xmlns="http://www.w3.org/2000/svg">
<g><g><g><path d="M216.9,4.8c-1.8,1-25.4,13.8-52.4,28.6s-49.9,27.1-51,27.6c-1,0.4-2.9,1.5-4.2,2.3C108.1,64,86.8,75.7,62,89.3c-30.2,16.5-45.8,25.3-47.3,26.7c-3.5,3.4-4.7,6.5-4.7,12.1c0,5.5,1.2,8.6,4.7,12c1.4,1.3,17.9,10.7,47.9,27.1c25.2,13.7,46.5,25.5,47.4,26.1c0.8,0.6,3,1.7,4.6,2.5c1.7,0.8,25.9,13.9,53.8,29.2c46.4,25.3,51,27.8,53.8,28c2.6,0.2,3.4,0.1,5-1.1c2.9-2,4.5-4.6,4.5-7.6c0-5.8-2.8-10.9-7.3-13.2c-1.5-0.8-2.8-1.7-2.8-2c0-0.3,1-3,2.3-6c13.2-31.5,19.9-57.9,21.7-85.2c1.9-28.6-4.9-63-19.6-100.1c-2.3-5.7-4.2-10.5-4.3-10.7c-0.1-0.2,1.1-1.1,2.6-1.8c6-3,9.3-12.7,6-17.6C227.3,2.7,222.6,1.8,216.9,4.8z M206.8,43.1c22.5,47.8,25.3,100.7,7.9,150.7c-2.5,7.3-9.9,24.3-11.2,25.6c-0.1,0.1-14.6-7.5-32.2-16.9l-32.1-17.2l1.6-2.3c6-8.8,10.8-23.2,12.9-38.8c0.9-6.8,0.9-25.4,0-32.4c-2.1-15.5-6.9-30.1-12.9-38.8l-1.6-2.3l31.9-17.1c17.6-9.4,32.1-17.1,32.2-17.1C203.5,36.6,205.1,39.5,206.8,43.1z M124.3,90.4c3.8,7.9,6.1,17.4,7.1,29.5c1.5,18.1-2.3,39.1-9.1,49.6l-1.8,2.8l-1.1-1.3c-1.8-2.2-5.3-10-6.8-15.1c-4.2-14.6-4.8-33.1-1.7-49c1.6-7.9,5-16.9,8.2-21.4l1.1-1.6l1.1,1.3C122,85.9,123.3,88.2,124.3,90.4z M88.4,103.6c-3.1,16-3.1,33,0,49c0.6,3.2,1.1,5.8,0.9,5.9c-0.1,0.1-11.9-6.1-26.4-13.9l-26.2-14V128v-2.5L63,111.5c14.4-7.7,26.3-13.9,26.4-13.8C89.5,97.7,89,100.4,88.4,103.6z"/></g></g></g>
</svg>
